<svg width="68" height="69" viewBox="0 0 68 69" fill="none" xmlns="http://www.w3.org/2000/svg">
<path d="M24.7755 9.93486C24.6042 9.8273 24.4665 9.67249 24.3785 9.48851C24.2906 9.30454 24.256 9.09898 24.2788 8.89581C24.3017 8.69265 24.381 8.50027 24.5075 8.34111C24.634 8.18196 24.8025 8.06259 24.9934 7.99694C28.8688 6.64197 32.993 6.17965 37.0665 6.64353C41.14 7.1074 45.0606 8.48584 48.5437 10.6788C48.6699 10.7595 48.7779 10.8663 48.8608 10.9923C48.9436 11.1182 48.9994 11.2604 49.0244 11.4097C49.0495 11.559 49.0433 11.7119 49.0062 11.8586C48.9691 12.0052 48.9021 12.1423 48.8093 12.2609C45.7338 16.2488 41.9621 19.6292 37.6823 22.2336C34.225 17.3072 29.8379 13.1268 24.7755 9.93486ZM33.8891 24.2578C30.0097 18.8863 24.9059 14.5481 19.0141 11.614C18.8454 11.5309 18.6578 11.4953 18.4709 11.5109C18.284 11.5266 18.1046 11.5929 17.9516 11.703C13.182 15.1649 9.6166 20.0717 7.76758 25.7186C7.72113 25.863 7.70527 26.0157 7.72103 26.1668C7.7368 26.3178 7.78385 26.4638 7.85908 26.5951C7.93432 26.7264 8.03605 26.8401 8.15761 26.9287C8.27917 27.0174 8.41781 27.0789 8.56446 27.1094C11.3369 27.7158 14.1646 28.0248 17.0007 28.0312C22.8336 28.0344 28.597 26.7467 33.8891 24.2578ZM61.461 31.4515C60.7856 25.1998 58.0541 19.3613 53.7074 14.8781C53.6014 14.7688 53.4737 14.6838 53.3328 14.6286C53.1919 14.5734 53.0409 14.5493 52.8901 14.558C52.7393 14.5667 52.592 14.6079 52.4581 14.6789C52.3242 14.7499 52.2068 14.849 52.1137 14.9697C48.7518 19.3156 44.6395 23.0052 39.9773 25.8588C41.4338 28.4192 42.6393 31.1185 43.5765 33.9178C47.3821 32.8709 51.3078 32.3416 55.2507 32.3437C56.937 32.3438 58.6219 32.44 60.2976 32.6321C60.4535 32.6479 60.611 32.6285 60.7587 32.5752C60.9063 32.522 61.0406 32.4363 61.1518 32.3243C61.263 32.2122 61.3484 32.0766 61.4018 31.9271C61.4553 31.7776 61.4755 31.618 61.461 31.4596V31.4515ZM44.7505 38.0551C45.5378 41.4534 45.9345 44.9329 45.9326 48.4239C45.9309 51.7654 45.5648 55.0964 44.8409 58.3562C44.7946 58.5558 44.8054 58.7647 44.872 58.9584C44.9386 59.152 45.0583 59.3223 45.2169 59.4494C45.3756 59.5765 45.5667 59.6549 45.7678 59.6757C45.9689 59.6964 46.1717 59.6585 46.3523 59.5663C50.381 57.5156 53.8555 54.4981 56.4741 50.7756C59.0927 47.0532 60.7763 42.7385 61.3787 38.206C61.3969 38.0647 61.3873 37.921 61.3504 37.7835C61.3136 37.6459 61.2502 37.5172 61.164 37.4046C61.0778 37.2921 60.9705 37.198 60.8482 37.1278C60.7259 37.0576 60.5911 37.0128 60.4516 36.9958C55.1988 36.3098 49.8644 36.6761 44.7505 38.0739V38.0551ZM39.5337 35.2385C38.6772 32.6899 37.5748 30.2333 36.2426 27.9045C30.2384 30.8314 23.6618 32.3487 17.0007 32.3437C13.887 32.3439 10.7819 32.0141 7.73571 31.3599C7.58873 31.3284 7.43686 31.329 7.2901 31.3614C7.14334 31.3939 7.00503 31.4575 6.88429 31.5482C6.76356 31.6389 6.66314 31.7545 6.58967 31.8874C6.5162 32.0204 6.47134 32.1676 6.45805 32.3194C6.40315 33.0382 6.37482 33.765 6.37305 34.4999C6.37165 38.3382 7.14921 42.1357 8.65729 45.6557C10.1654 49.1758 12.3716 52.343 15.1387 54.9601C15.2554 55.0686 15.3945 55.1493 15.5459 55.1963C15.6974 55.2433 15.8572 55.2553 16.0138 55.2315C16.1704 55.2078 16.3197 55.1488 16.451 55.0589C16.5822 54.969 16.692 54.8505 16.7723 54.7121C21.9568 45.7856 29.9855 38.9194 39.5337 35.2465V35.2385ZM20.1059 57.4775C20.036 57.6012 19.9911 57.7377 19.9736 57.8791C19.9561 58.0206 19.9664 58.1641 20.004 58.3015C20.0415 58.4388 20.1056 58.5673 20.1924 58.6794C20.2791 58.7915 20.387 58.885 20.5096 58.9545C26.0647 62.1149 32.5261 63.2281 38.7979 62.1053C38.9845 62.0723 39.1587 61.9884 39.3019 61.8626C39.4451 61.7367 39.5518 61.5738 39.6107 61.3911C40.9807 57.2118 41.6802 52.8364 41.6826 48.432C41.6831 45.3977 41.3499 42.3728 40.6891 39.4135C31.9854 42.8545 24.7162 49.234 20.1059 57.4775Z" fill="#FF4F4F"/>
</svg>
