<svg width="64" height="69" viewBox="0 0 64 69" fill="none" xmlns="http://www.w3.org/2000/svg">
<path d="M23 32.3438H16V25.875H23C23.7956 25.875 24.5587 26.2158 25.1213 26.8223C25.6839 27.4289 26 28.2516 26 29.1094C26 29.9672 25.6839 30.7899 25.1213 31.3964C24.5587 32.003 23.7956 32.3438 23 32.3438ZM24 36.6562H16V45.2812H24C25.0609 45.2812 26.0783 44.8269 26.8284 44.0181C27.5786 43.2094 28 42.1125 28 40.9688C28 39.825 27.5786 38.7281 26.8284 37.9194C26.0783 37.1106 25.0609 36.6562 24 36.6562ZM44 32.3438C42.7595 32.3442 41.5497 32.7591 40.537 33.5314C39.5243 34.3037 38.7585 35.3954 38.345 36.6562H49.655C49.2415 35.3954 48.4757 34.3037 47.463 33.5314C46.4503 32.7591 45.2405 32.3442 44 32.3438ZM60 15.0938V53.9062C60 55.05 59.5786 56.1469 58.8284 56.9556C58.0783 57.7644 57.0609 58.2188 56 58.2188H8C6.93913 58.2188 5.92172 57.7644 5.17157 56.9556C4.42143 56.1469 4 55.05 4 53.9062V15.0938C4 13.95 4.42143 12.8531 5.17157 12.0444C5.92172 11.2356 6.93913 10.7813 8 10.7812H56C57.0609 10.7813 58.0783 11.2356 58.8284 12.0444C59.5786 12.8531 60 13.95 60 15.0938ZM36 23.7188C36 24.2906 36.2107 24.8391 36.5858 25.2434C36.9609 25.6478 37.4696 25.875 38 25.875H50C50.5304 25.875 51.0391 25.6478 51.4142 25.2434C51.7893 24.8391 52 24.2906 52 23.7188C52 23.1469 51.7893 22.5984 51.4142 22.1941C51.0391 21.7897 50.5304 21.5625 50 21.5625H38C37.4696 21.5625 36.9609 21.7897 36.5858 22.1941C36.2107 22.5984 36 23.1469 36 23.7188ZM32 40.9688C31.9994 39.5561 31.6769 38.1653 31.061 36.9184C30.445 35.6716 29.5544 34.607 28.4675 33.8181C29.2897 32.7078 29.8045 31.37 29.9527 29.9583C30.1009 28.5466 29.8766 27.1185 29.3054 25.8382C28.7342 24.5579 27.8395 23.4774 26.724 22.7211C25.6086 21.9647 24.3177 21.5631 23 21.5625H14C13.4696 21.5625 12.9609 21.7897 12.5858 22.1941C12.2107 22.5984 12 23.1469 12 23.7188V47.4375C12 48.0094 12.2107 48.5578 12.5858 48.9622C12.9609 49.3666 13.4696 49.5938 14 49.5938H24C26.1217 49.5938 28.1566 48.685 29.6569 47.0675C31.1571 45.45 32 43.2562 32 40.9688ZM54 38.8125C53.9999 36.3472 53.2161 33.9564 51.7792 32.0385C50.3423 30.1207 48.3392 28.7917 46.1037 28.2731C43.8682 27.7545 41.5353 28.0775 39.494 29.1884C37.4526 30.2993 35.826 32.1309 34.8853 34.378C33.9447 36.625 33.7467 39.1518 34.3245 41.5371C34.9022 43.9225 36.2208 46.0223 38.0604 47.4866C39.9 48.9509 42.1496 49.6912 44.4341 49.5842C46.7186 49.4772 48.9001 48.5293 50.615 46.8984C51.0128 46.5199 51.2549 45.9865 51.2879 45.4156C51.321 44.8447 51.1423 44.283 50.7912 43.8541C50.6174 43.6417 50.4065 43.4683 50.1705 43.3438C49.9345 43.2194 49.6781 43.1462 49.4159 43.1286C48.8863 43.0929 48.3653 43.2856 47.9675 43.6641C47.2312 44.3634 46.347 44.8574 45.3925 45.1028C44.4379 45.3481 43.4422 45.3373 42.4924 45.0712C41.5426 44.8052 40.6679 44.2921 39.9448 43.5768C39.2217 42.8616 38.6724 41.9661 38.345 40.9688H52C52.5304 40.9688 53.0391 40.7416 53.4142 40.3372C53.7893 39.9328 54 39.3844 54 38.8125Z" fill="#FF4F4F"/>
</svg>
