<svg width="64" height="59" viewBox="0 0 64 59" fill="none" xmlns="http://www.w3.org/2000/svg">
<path d="M57.9999 29.5002C57.9917 35.3583 55.6602 41.0114 51.4446 45.3948C47.229 49.7781 41.4202 52.5892 35.1124 53.2984C34.9719 53.313 34.8297 53.3001 34.6951 53.2604C34.5605 53.2206 34.4365 53.1551 34.3314 53.068C34.2262 52.9808 34.1423 52.8742 34.0852 52.755C34.0281 52.6358 33.999 52.5068 33.9999 52.3765V35.0314H39.9999C40.2741 35.032 40.5454 34.9806 40.7971 34.8804C41.0489 34.7802 41.2755 34.6333 41.4631 34.449C41.6507 34.2646 41.7951 34.0467 41.8874 33.8087C41.9798 33.5707 42.0181 33.3177 41.9999 33.0655C41.9557 32.5914 41.7184 32.1503 41.3358 31.8309C40.9532 31.5115 40.4535 31.3375 39.9374 31.3439H33.9999V25.8127C33.9999 24.8347 34.4213 23.8968 35.1715 23.2052C35.9216 22.5137 36.939 22.1252 37.9999 22.1252H41.9999C42.2741 22.1257 42.5454 22.0743 42.7971 21.9741C43.0489 21.8739 43.2755 21.7271 43.4631 21.5427C43.6507 21.3583 43.7951 21.1404 43.8874 20.9024C43.9798 20.6644 44.0181 20.4115 43.9999 20.1593C43.9557 19.6844 43.7177 19.2426 43.334 18.9231C42.9503 18.6035 42.4494 18.4301 41.9324 18.4377H37.9999C35.8782 18.4377 33.8433 19.2147 32.343 20.5978C30.8427 21.9808 29.9999 23.8567 29.9999 25.8127V31.3439H23.9999C23.7257 31.3434 23.4543 31.3948 23.2026 31.495C22.9509 31.5952 22.7242 31.742 22.5367 31.9264C22.3491 32.1107 22.2047 32.3287 22.1123 32.5667C22.02 32.8047 21.9817 33.0576 21.9999 33.3098C22.0441 33.7847 22.2821 34.2265 22.6658 34.546C23.0495 34.8655 23.5504 35.039 24.0674 35.0314H29.9999V52.3811C30.0007 52.5112 29.9717 52.64 29.9147 52.759C29.8578 52.878 29.7741 52.9845 29.6692 53.0716C29.5644 53.1587 29.4408 53.2243 29.3064 53.2642C29.1721 53.3041 29.0301 53.3173 28.8899 53.303C22.4133 52.5759 16.4688 49.6337 12.2331 45.0588C7.99735 40.4839 5.7791 34.6098 6.01739 28.599C6.51739 16.1537 17.4524 6.03615 30.9624 5.55216C34.4601 5.42726 37.9492 5.95399 41.2211 7.10083C44.4929 8.24768 47.4802 9.99108 50.0043 12.2268C52.5284 14.4624 54.5374 17.1445 55.9113 20.1124C57.2851 23.0804 57.9955 26.2733 57.9999 29.5002Z" fill="#FF4F4F"/>
</svg>
