<svg width="294" height="300" viewBox="0 0 294 300" fill="none" xmlns="http://www.w3.org/2000/svg">
<path d="M294 200C294 203.315 292.653 206.494 290.256 208.839C287.859 211.183 284.608 212.5 281.217 212.5H242.87V237.5H268.435C271.825 237.5 275.076 238.817 277.473 241.161C279.871 243.505 281.217 246.684 281.217 250C281.217 253.315 279.871 256.494 277.473 258.839C275.076 261.183 271.825 262.5 268.435 262.5H242.87V287.5C242.87 290.815 241.523 293.994 239.126 296.338C236.728 298.683 233.477 300 230.087 300C226.697 300 223.445 298.683 221.048 296.338C218.651 293.994 217.304 290.815 217.304 287.5V200C217.304 196.685 218.651 193.505 221.048 191.161C223.445 188.817 226.697 187.5 230.087 187.5H281.217C284.608 187.5 287.859 188.817 290.256 191.161C292.653 193.505 294 196.685 294 200ZM83.087 231.25C83.087 242.853 78.3734 253.981 69.9832 262.186C61.593 270.39 50.2134 275 38.3478 275H25.5652V287.5C25.5652 290.815 24.2185 293.994 21.8213 296.338C19.4241 298.683 16.1728 300 12.7826 300C9.39245 300 6.14115 298.683 3.74394 296.338C1.34674 293.994 0 290.815 0 287.5V200C0 196.685 1.34674 193.505 3.74394 191.161C6.14115 188.817 9.39245 187.5 12.7826 187.5H38.3478C50.2134 187.5 61.593 192.109 69.9832 200.314C78.3734 208.519 83.087 219.646 83.087 231.25ZM57.5217 231.25C57.5217 226.277 55.5016 221.508 51.9058 217.991C48.31 214.475 43.4331 212.5 38.3478 212.5H25.5652V250H38.3478C43.4331 250 48.31 248.024 51.9058 244.508C55.5016 240.992 57.5217 236.223 57.5217 231.25ZM198.13 243.75C198.13 258.668 192.07 272.975 181.283 283.524C170.495 294.073 155.864 300 140.609 300H115.043C111.653 300 108.402 298.683 106.005 296.338C103.608 293.994 102.261 290.815 102.261 287.5V200C102.261 196.685 103.608 193.505 106.005 191.161C108.402 188.817 111.653 187.5 115.043 187.5H140.609C155.864 187.5 170.495 193.426 181.283 203.975C192.07 214.524 198.13 228.831 198.13 243.75ZM172.565 243.75C172.565 235.462 169.198 227.513 163.205 221.653C157.212 215.792 149.084 212.5 140.609 212.5H127.826V275H140.609C149.084 275 157.212 271.707 163.205 265.847C169.198 259.986 172.565 252.038 172.565 243.75ZM0 137.5V25C0 18.3696 2.69347 12.0107 7.48788 7.32232C12.2823 2.63392 18.7849 3.86498e-06 25.5652 3.86498e-06H178.957C180.636 -0.00128732 182.299 0.320947 183.85 0.948298C185.402 1.57565 186.812 2.49582 188 3.65625L277.478 91.1561C278.665 92.3178 279.606 93.6968 280.248 95.2143C280.889 96.7317 281.219 98.3579 281.217 99.9999V137.5C281.217 140.815 279.871 143.994 277.473 146.339C275.076 148.683 271.825 150 268.435 150C265.045 150 261.793 148.683 259.396 146.339C256.999 143.994 255.652 140.815 255.652 137.5V112.5H178.957C175.566 112.5 172.315 111.183 169.918 108.839C167.521 106.494 166.174 103.315 166.174 99.9999V25H25.5652V137.5C25.5652 140.815 24.2185 143.994 21.8213 146.339C19.4241 148.683 16.1728 150 12.7826 150C9.39245 150 6.14115 148.683 3.74394 146.339C1.34674 143.994 0 140.815 0 137.5ZM191.739 87.4999H237.581L191.739 42.6718V87.4999Z" fill="black"/>
</svg>
