<svg width="125" height="125" viewBox="0 0 125 125" fill="none" xmlns="http://www.w3.org/2000/svg">
<path d="M11.6896 50.6553H23.3793V81.8278H15.5862C14.5527 81.8278 13.5616 82.2384 12.8309 82.9691C12.1001 83.6999 11.6896 84.691 11.6896 85.7244C11.6896 86.7578 12.1001 87.7489 12.8309 88.4797C13.5616 89.2104 14.5527 89.621 15.5862 89.621H109.104C110.137 89.621 111.128 89.2104 111.859 88.4797C112.59 87.7489 113 86.7578 113 85.7244C113 84.691 112.59 83.6999 111.859 82.9691C111.128 82.2384 110.137 81.8278 109.104 81.8278H101.311V50.6553H113C113.848 50.6545 114.672 50.3771 115.348 49.8654C116.024 49.3536 116.515 48.6353 116.746 47.8195C116.977 47.0037 116.935 46.1349 116.627 45.3449C116.32 44.5549 115.763 43.8867 115.041 43.4418L64.3858 12.2693C63.7719 11.8919 63.0655 11.6921 62.3449 11.6921C61.6244 11.6921 60.9179 11.8919 60.3041 12.2693L9.64879 43.4418C8.92708 43.8867 8.37017 44.5549 8.06254 45.3449C7.75491 46.1349 7.71335 47.0037 7.94415 47.8195C8.17495 48.6353 8.66553 49.3536 9.34146 49.8654C10.0174 50.3771 10.8418 50.6545 11.6896 50.6553ZM31.1724 50.6553H46.7587V81.8278H31.1724V50.6553ZM70.1381 50.6553V81.8278H54.5518V50.6553H70.1381ZM93.5174 81.8278H77.9312V50.6553H93.5174V81.8278ZM62.3449 20.1599L99.2356 42.8622H25.4542L62.3449 20.1599ZM120.793 101.311C120.793 102.344 120.383 103.335 119.652 104.066C118.921 104.797 117.93 105.207 116.897 105.207H7.79305C6.75961 105.207 5.76851 104.797 5.03776 104.066C4.30701 103.335 3.89648 102.344 3.89648 101.311C3.89648 100.277 4.30701 99.2861 5.03776 98.5554C5.76851 97.8246 6.75961 97.4141 7.79305 97.4141H116.897C117.93 97.4141 118.921 97.8246 119.652 98.5554C120.383 99.2861 120.793 100.277 120.793 101.311Z" fill="white"/>
</svg>
