<svg width="133" height="124" viewBox="0 0 133 124" fill="none" xmlns="http://www.w3.org/2000/svg">
<path d="M16.3125 62V96.875C16.3125 97.9027 16.7504 98.8883 17.5298 99.615C18.3093 100.342 19.3664 100.75 20.4688 100.75H62.0312C63.1336 100.75 64.1907 101.158 64.9702 101.885C65.7496 102.612 66.1875 103.597 66.1875 104.625C66.1875 105.653 65.7496 106.638 64.9702 107.365C64.1907 108.092 63.1336 108.5 62.0312 108.5H53.7188V116.25H62.0312C63.1336 116.25 64.1907 116.658 64.9702 117.385C65.7496 118.112 66.1875 119.097 66.1875 120.125C66.1875 121.153 65.7496 122.138 64.9702 122.865C64.1907 123.592 63.1336 124 62.0312 124H37.0938C35.9914 124 34.9343 123.592 34.1548 122.865C33.3754 122.138 32.9375 121.153 32.9375 120.125C32.9375 119.097 33.3754 118.112 34.1548 117.385C34.9343 116.658 35.9914 116.25 37.0938 116.25H45.4062V108.5H20.4688C17.1618 108.5 13.9904 107.275 11.652 105.095C9.31367 102.915 8 99.9581 8 96.875V62C8 58.9169 9.31367 55.96 11.652 53.7799C13.9904 51.5998 17.1618 50.375 20.4688 50.375H62.0312C63.1336 50.375 64.1907 50.7833 64.9702 51.51C65.7496 52.2367 66.1875 53.2223 66.1875 54.25C66.1875 55.2777 65.7496 56.2633 64.9702 56.99C64.1907 57.7167 63.1336 58.125 62.0312 58.125H20.4688C19.3664 58.125 18.3093 58.5333 17.5298 59.26C16.7504 59.9867 16.3125 60.9723 16.3125 62ZM111.906 46.5H95.2812C94.1789 46.5 93.1218 46.9083 92.3423 47.635C91.5629 48.3617 91.125 49.3473 91.125 50.375C91.125 51.4027 91.5629 52.3883 92.3423 53.115C93.1218 53.8417 94.1789 54.25 95.2812 54.25H111.906C113.009 54.25 114.066 53.8417 114.845 53.115C115.625 52.3883 116.062 51.4027 116.062 50.375C116.062 49.3473 115.625 48.3617 114.845 47.635C114.066 46.9083 113.009 46.5 111.906 46.5ZM111.906 62H95.2812C94.1789 62 93.1218 62.4083 92.3423 63.135C91.5629 63.8617 91.125 64.8473 91.125 65.875C91.125 66.9027 91.5629 67.8883 92.3423 68.615C93.1218 69.3417 94.1789 69.75 95.2812 69.75H111.906C113.009 69.75 114.066 69.3417 114.845 68.615C115.625 67.8883 116.062 66.9027 116.062 65.875C116.062 64.8473 115.625 63.8617 114.845 63.135C114.066 62.4083 113.009 62 111.906 62ZM132.688 38.75V116.25C132.688 118.305 131.812 120.277 130.253 121.73C128.694 123.183 126.58 124 124.375 124H82.8125C80.6079 124 78.4936 123.183 76.9347 121.73C75.3758 120.277 74.5 118.305 74.5 116.25V38.75C74.5 36.6946 75.3758 34.7233 76.9347 33.2699C78.4936 31.8165 80.6079 31 82.8125 31H124.375C126.58 31 128.694 31.8165 130.253 33.2699C131.812 34.7233 132.688 36.6946 132.688 38.75ZM124.375 116.25V38.75H82.8125V116.25H124.375ZM103.594 96.875C102.361 96.875 101.155 97.2159 100.13 97.8546C99.1049 98.4933 98.3058 99.4011 97.8339 100.463C97.3621 101.525 97.2386 102.694 97.4792 103.821C97.7197 104.949 98.3135 105.985 99.1854 106.798C100.057 107.61 101.168 108.164 102.377 108.388C103.587 108.613 104.84 108.497 105.98 108.058C107.119 107.618 108.092 106.873 108.777 105.917C109.462 104.961 109.828 103.837 109.828 102.688C109.828 101.146 109.171 99.6675 108.002 98.5774C106.833 97.4874 105.247 96.875 103.594 96.875Z" fill="white"/>
</svg>
