<svg width="102" height="100" viewBox="0 0 102 100" fill="none" xmlns="http://www.w3.org/2000/svg">
<path d="M50.5749 0C40.5721 0 30.794 2.92621 22.477 8.40859C14.16 13.891 7.6777 21.6833 3.84981 30.8002C0.0219133 39.917 -0.979638 49.949 0.971805 59.6274C2.92325 69.3058 7.74004 78.196 14.8131 85.1737C21.8861 92.1515 30.8977 96.9034 40.7082 98.8285C50.5188 100.754 60.6877 99.7656 69.9291 95.9893C79.1704 92.213 87.0692 85.818 92.6264 77.613C98.1836 69.4081 101.15 59.7616 101.15 49.8936C101.136 36.6653 95.8027 23.9828 86.3211 14.6289C76.8395 5.27509 63.9839 0.0139693 50.5749 0ZM37.7513 69.0835H63.3986C60.7871 77.882 56.4105 85.8122 50.5749 92.0585C44.7393 85.8122 40.3627 77.882 37.7513 69.0835ZM35.986 61.4075C34.6957 53.7844 34.6957 46.0029 35.986 38.3797H65.1638C66.4541 46.0029 66.4541 53.7844 65.1638 61.4075H35.986ZM7.78077 49.8936C7.77739 46.0002 8.32239 42.1252 9.40014 38.3797H28.1031C26.9425 46.0129 26.9425 53.7743 28.1031 61.4075H9.40014C8.32239 57.6621 7.77739 53.7871 7.78077 49.8936ZM63.3986 30.7038H37.7513C40.3627 21.9052 44.7393 13.975 50.5749 7.72871C56.4105 13.975 60.7871 21.9052 63.3986 30.7038ZM73.0467 38.3797H91.7497C93.9089 45.9079 93.9089 53.8794 91.7497 61.4075H73.0467C74.2073 53.7743 74.2073 46.0129 73.0467 38.3797ZM88.686 30.7038H71.4565C69.4711 22.9967 66.1369 15.6908 61.6041 9.11518C67.3952 10.6505 72.7965 13.3644 77.4606 17.0825C82.1247 20.8005 85.9485 25.4404 88.686 30.7038ZM39.5457 9.11518C35.0129 15.6908 31.6787 22.9967 29.6933 30.7038H12.4638C15.2013 25.4404 19.0251 20.8005 23.6892 17.0825C28.3534 13.3644 33.7546 10.6505 39.5457 9.11518ZM12.4638 69.0835H29.6933C31.6787 76.7905 35.0129 84.0964 39.5457 90.6721C33.7546 89.1368 28.3534 86.4228 23.6892 82.7048C19.0251 78.9867 15.2013 74.3468 12.4638 69.0835ZM61.6041 90.6721C66.1369 84.0964 69.4711 76.7905 71.4565 69.0835H88.686C85.9485 74.3468 82.1247 78.9867 77.4606 82.7048C72.7965 86.4228 67.3952 89.1368 61.6041 90.6721Z" fill="#F0F2F4"/>
</svg>
