<svg width="125" height="125" viewBox="0 0 125 125" fill="none" xmlns="http://www.w3.org/2000/svg">
<path d="M118.767 37.1099C117.888 36.3435 116.801 35.8556 115.645 35.7082C114.488 35.5607 113.313 35.7604 112.27 36.2819L87.8141 48.4587L67.3961 14.544C66.8713 13.6737 66.1304 12.9538 65.2455 12.4541C64.3605 11.9544 63.3615 11.6918 62.3452 11.6918C61.3289 11.6918 60.3299 11.9544 59.4449 12.4541C58.56 12.9538 57.8192 13.6737 57.2943 14.544L36.8763 48.4733L12.4302 36.2965C11.3896 35.7797 10.2194 35.5817 9.06667 35.7275C7.91391 35.8733 6.82988 36.3562 5.95061 37.1158C5.07135 37.8755 4.43601 38.8778 4.12435 39.9972C3.81268 41.1166 3.83857 42.303 4.19875 43.4077L22.2204 98.622C22.4015 99.1767 22.705 99.6836 23.1083 100.105C23.5117 100.527 24.0046 100.853 24.5507 101.059C25.0967 101.264 25.682 101.345 26.2634 101.294C26.8447 101.243 27.4072 101.062 27.9093 100.765C28.0311 100.692 40.4855 93.5175 62.3452 93.5175C84.2049 93.5175 96.6593 100.692 96.7713 100.76C97.2737 101.06 97.8371 101.244 98.4199 101.296C99.0027 101.349 99.5898 101.269 100.138 101.064C100.686 100.858 101.18 100.532 101.585 100.11C101.99 99.6869 102.294 99.1784 102.475 98.622L120.497 43.4223C120.867 42.3173 120.901 41.1271 120.593 40.003C120.285 38.8789 119.649 37.8719 118.767 37.1099ZM96.4401 91.9735C90.5953 89.4943 78.9446 85.7244 62.3452 85.7244C45.7458 85.7244 34.0951 89.4943 28.2503 91.9735L13.0099 45.2976L34.9621 56.242C36.2909 56.8973 37.8169 57.0312 39.2394 56.6175C40.662 56.2037 41.8781 55.2721 42.6481 54.0064L62.3452 21.2655L82.0423 53.9967C82.813 55.2603 84.0282 56.1903 85.4494 56.6039C86.8705 57.0176 88.395 56.885 89.7234 56.2323L111.681 45.2976L96.4401 91.9735ZM85.6613 76.3873C85.5022 77.2887 85.0309 78.1053 84.33 78.694C83.6291 79.2827 82.7433 79.6059 81.828 79.6068C81.5995 79.6065 81.3714 79.5869 81.1461 79.5484C68.7 77.4117 55.9807 77.4117 43.5345 79.5484C42.5166 79.7279 41.4691 79.4958 40.6223 78.9029C39.7755 78.3101 39.199 77.4052 39.0194 76.3873C38.8399 75.3693 39.072 74.3218 39.6648 73.475C40.2577 72.6283 41.1626 72.0517 42.1805 71.8721C55.5226 69.5797 69.158 69.5797 82.5002 71.8721C83.5161 72.0505 84.4199 72.6244 85.0133 73.4681C85.6068 74.3117 85.8416 75.3562 85.6661 76.3727L85.6613 76.3873Z" fill="white"/>
</svg>
