<svg width="43" height="57" viewBox="0 0 43 57" fill="none" xmlns="http://www.w3.org/2000/svg">
<path d="M21.4659 0C15.7747 0.00663378 10.3186 2.33255 6.29434 6.46749C2.2701 10.6024 0.00645618 16.2087 0 22.0564C0 40.9296 19.5144 55.1835 20.3462 55.78C20.6743 56.0162 21.0652 56.1429 21.4659 56.1429C21.8665 56.1429 22.2574 56.0162 22.5855 55.78C23.4173 55.1835 42.9317 40.9296 42.9317 22.0564C42.9253 16.2087 40.6616 10.6024 36.6374 6.46749C32.6132 2.33255 27.157 0.00663378 21.4659 0ZM21.4659 14.0359C23.0097 14.0359 24.5189 14.5063 25.8025 15.3876C27.0862 16.2689 28.0867 17.5215 28.6775 18.9871C29.2683 20.4526 29.4228 22.0653 29.1216 23.6211C28.8205 25.1769 28.077 26.606 26.9854 27.7277C25.8937 28.8494 24.5029 29.6133 22.9887 29.9227C21.4745 30.2322 19.905 30.0734 18.4787 29.4663C17.0524 28.8593 15.8333 27.8313 14.9756 26.5123C14.1179 25.1933 13.6601 23.6427 13.6601 22.0564C13.6601 19.9292 14.4825 17.8892 15.9464 16.385C17.4102 14.8809 19.3956 14.0359 21.4659 14.0359Z" fill="#FF4F4F"/>
</svg>
