<svg width="60" height="64" viewBox="0 0 60 64" fill="none" xmlns="http://www.w3.org/2000/svg">
<path d="M54.75 37.9921C54.75 38.1196 54.75 38.2421 54.75 38.3721C54.6703 41.9371 53.4305 45.9921 48.1875 45.9921C42.7641 45.9921 41.625 41.6421 41.625 37.9921V27.9921C41.6256 27.7179 41.5733 27.4465 41.4714 27.1948C41.3695 26.9431 41.2201 26.7164 41.0327 26.5289C40.8452 26.3413 40.6235 26.1969 40.3815 26.1045C40.1395 26.0122 39.8823 25.9739 39.6258 25.9921C39.1428 26.0363 38.6935 26.2743 38.3686 26.658C38.0437 27.0417 37.8673 27.5426 37.875 28.0596V29.0596C36.1823 27.4414 34.0698 26.4081 31.8158 26.0958C29.5617 25.7834 27.2718 26.2067 25.2478 27.3099C23.2237 28.413 21.5604 30.1443 20.4769 32.2757C19.3934 34.407 18.9406 36.8385 19.1781 39.2497C19.4157 41.661 20.3324 43.939 21.8075 45.7836C23.2826 47.6281 25.247 48.9528 27.4418 49.5832C29.6367 50.2135 31.959 50.1198 34.103 49.3146C36.247 48.5093 38.112 47.0302 39.4523 45.0721C39.6867 45.5093 39.9515 45.9272 40.2445 46.3221C41.5031 47.9921 43.9008 49.9921 48.1875 49.9921C48.9115 49.9946 49.6344 49.9319 50.3484 49.8046C50.525 49.7732 50.7063 49.7963 50.8708 49.8713C51.0354 49.9463 51.1765 50.07 51.2773 50.2277C51.3781 50.3855 51.4345 50.5707 51.4397 50.7615C51.445 50.9523 51.399 51.1408 51.307 51.3046C49.1034 55.2475 45.9608 58.4981 42.1984 60.7265C38.436 62.9548 34.1878 64.0815 29.8852 63.9921C17.0461 63.7171 6.51562 52.7071 6.01875 39.0196C5.89166 35.5653 6.41165 32.1187 7.54829 28.8813C8.68493 25.6439 10.4154 22.6808 12.6385 20.1654C14.8616 17.6499 17.5326 15.6326 20.4953 14.2315C23.4581 12.8303 26.653 12.0734 29.8933 12.0051C33.1335 11.9368 36.354 12.5584 39.3664 13.8336C42.3787 15.1087 45.1224 17.0119 47.4369 19.4317C49.7514 21.8514 51.5903 24.7393 52.846 27.9262C54.1017 31.1131 54.749 34.5351 54.75 37.9921ZM22.875 37.9921C22.875 39.5743 23.3149 41.121 24.139 42.4366C24.9631 43.7522 26.1344 44.7776 27.5049 45.3831C28.8753 45.9886 30.3833 46.147 31.8382 45.8384C33.293 45.5297 34.6294 44.7677 35.6783 43.6489C36.7272 42.5301 37.4415 41.1046 37.7309 39.5528C38.0203 38.001 37.8718 36.3924 37.3041 34.9306C36.7364 33.4688 35.7751 32.2194 34.5418 31.3403C33.3084 30.4613 31.8584 29.9921 30.375 29.9921C28.3859 29.9921 26.4782 30.8349 25.0717 32.3352C23.6652 33.8355 22.875 35.8703 22.875 37.9921Z" fill="#FF4F4F"/>
</svg>
