<svg width="43" height="52" viewBox="0 0 43 52" fill="none" xmlns="http://www.w3.org/2000/svg">
<path d="M42.9067 38.69C42.524 42.1601 41.0955 45.3454 38.888 47.6509C36.6806 49.9563 33.8452 51.2243 30.9114 51.2181C13.8672 51.2181 1.9424e-05 34.6745 1.9424e-05 14.3407C-0.00523976 10.8406 1.05763 7.45799 2.99012 4.82452C4.92261 2.19104 7.59256 0.486844 10.5013 0.0302129C11.2368 -0.076934 11.9817 0.10259 12.6247 0.541985C13.2677 0.98138 13.7743 1.65708 14.069 2.46822L18.6027 14.543V14.5737C18.8282 15.1946 18.9214 15.8725 18.8738 16.5469C18.8263 17.2212 18.6394 17.871 18.33 18.4382C18.2914 18.5073 18.2506 18.5713 18.2077 18.6354L13.7384 24.9557C15.3462 28.8535 18.7637 32.8946 22.0737 34.8179L27.2986 29.5142C27.3499 29.4627 27.4037 29.4149 27.4596 29.3708C27.9347 28.9928 28.4812 28.7621 29.0498 28.6995C29.6184 28.6369 30.1911 28.7444 30.7161 29.0122L30.744 29.0276L40.8567 34.4337C41.5378 34.784 42.1056 35.3879 42.4751 36.1551C42.8446 36.9223 42.9961 37.8116 42.9067 38.69Z" fill="#FF4F4F"/>
</svg>
