<svg width="103" height="111" viewBox="0 0 103 111" fill="none" xmlns="http://www.w3.org/2000/svg">
<path d="M94.3125 0.03125H8.6875C6.41658 0.03125 4.23868 0.959707 2.6329 2.61237C1.02712 4.26504 0.125 6.50653 0.125 8.84375V41.2187C0.125 90.5742 40.7005 106.949 48.8242 109.73C50.5593 110.338 52.4407 110.338 54.1758 109.73C62.3102 106.949 102.875 90.5742 102.875 41.2187V8.84375C102.875 6.50653 101.973 4.26504 100.367 2.61237C98.7613 0.959707 96.5834 0.03125 94.3125 0.03125ZM94.3125 41.2242C94.3125 84.4164 58.8049 98.8469 51.5 101.358C44.2593 98.8745 8.6875 84.455 8.6875 41.2242V8.84375H94.3125V41.2242ZM27.0648 56.0237C26.2614 55.1969 25.8101 54.0755 25.8101 52.9062C25.8101 51.737 26.2614 50.6156 27.0648 49.7888C27.8681 48.962 28.9577 48.4976 30.0938 48.4976C31.2298 48.4976 32.3194 48.962 33.1227 49.7888L42.9375 59.8902L69.8773 32.1638C70.275 31.7544 70.7473 31.4297 71.267 31.2081C71.7867 30.9866 72.3437 30.8726 72.9062 30.8726C73.4688 30.8726 74.0258 30.9866 74.5455 31.2081C75.0652 31.4297 75.5375 31.7544 75.9352 32.1638C76.333 32.5732 76.6485 33.0592 76.8638 33.5941C77.0791 34.129 77.1899 34.7023 77.1899 35.2812C77.1899 35.8602 77.0791 36.4335 76.8638 36.9684C76.6485 37.5033 76.333 37.9893 75.9352 38.3987L45.9665 69.2424C45.5689 69.6521 45.0967 69.9771 44.577 70.1988C44.0572 70.4206 43.5001 70.5347 42.9375 70.5347C42.3749 70.5347 41.8178 70.4206 41.298 70.1988C40.7783 69.9771 40.3061 69.6521 39.9085 69.2424L27.0648 56.0237Z" fill="white"/>
</svg>
