<svg width="51" height="58" viewBox="0 0 51 58" fill="none" xmlns="http://www.w3.org/2000/svg">
<path d="M50.366 11.2065L43.3181 20.1027C41.8943 40.9361 27.9753 57.1279 11.3172 57.1279C7.89465 57.1279 5.07313 56.4435 2.93047 55.0927C1.20267 54.0008 0.495526 52.8315 0.318739 52.4982C0.161103 52.1998 0.0589277 51.8603 0.0198497 51.5051C-0.0192282 51.1498 0.00580122 50.788 0.0930668 50.4467C0.180332 50.1054 0.327578 49.7933 0.523802 49.5339C0.720026 49.2745 0.960154 49.0745 1.22625 48.9487C1.28753 48.9189 6.94 46.1786 10.53 40.9628C8.53906 38.8967 6.80111 36.4704 5.37249 33.7625C2.44961 28.2849 -0.822127 18.7698 0.186738 4.55064C0.218715 4.09882 0.352309 3.66795 0.571786 3.30875C0.791263 2.94956 1.08748 2.67701 1.42556 2.52319C1.76364 2.36938 2.1295 2.3407 2.48006 2.44055C2.83062 2.5404 3.15127 2.76461 3.40426 3.08677C3.48676 3.19091 11.2489 12.9351 20.7388 16.095V14.283C20.7352 12.3829 21.0328 10.5011 21.6141 8.74846C22.1955 6.99579 23.0487 5.40765 24.1237 4.07756C25.1677 2.76165 26.4099 1.723 27.7771 1.02291C29.1442 0.322822 30.6086 -0.0245318 32.0838 0.00134658C34.0628 0.0259851 36.0031 0.696543 37.716 1.94783C39.4289 3.19911 40.8561 4.98855 41.859 7.14216H49.0318C49.405 7.14179 49.7699 7.28119 50.0802 7.54271C50.3906 7.80423 50.6325 8.17612 50.7754 8.61129C50.9182 9.04646 50.9556 9.52534 50.8827 9.98731C50.8098 10.4493 50.63 10.8736 50.366 11.2065Z" fill="#FF4F4F"/>
</svg>
